#!OML:ASF I:\Actors\actors\Patient Classification 2\Patient 1\Session 1\actor1.ASF
:FULLY-SPECIFIED
:DEGREES
326
root -0.373736 18.1962 4.20729 3.12977 2.95683 -0.121095
lowerback 24.5599 -0.717991 1.37785
upperback 4.81094 -0.537017 0.319655
thorax -8.35922 -0.279581 -0.273309
lowerneck -18.0414 -2.13312 -2.29576
upperneck 6.87334 -2.99546 5.84699
head 5.10734 -1.10767 1.93017
rclavicle 4.47266e-015 -6.75868e-015
rhumerus -13.7939 34.4029 -81.0916
rradius 97.6336
rwrist 7.32766
rhand -40.6932 -49.7848
rfingers 7.12502
rthumb -13.636 -79.3182
lclavicle 4.47266e-015 -6.75868e-015
lhumerus -11.9332 -40.9338 80.3573
lradius 101.212
lwrist 17.0224
lhand -33.1936 -52.4871
lfingers 7.12502
lthumb -6.40115 -22.6038
rfemur -14.6476 -2.7306 12.6337
rtibia 29.5883
rfoot -22.8124 -5.98072
rtoes -13.2563
lfemur -23.3352 2.35088 -14.6039
ltibia 39.3874
lfoot -19.5171 2.17731
ltoes -56.5208
327
root -0.352299 18.1933 4.15968 3.84546 3.47337 0.152901
lowerback 24.7886 -0.96275 1.66854
upperback 4.98945 -0.783861 0.212114
thorax -8.28734 -0.401922 -0.481046
lowerneck -18.025 -2.16998 -2.40627
upperneck 5.5472 -2.97457 6.02683
head 4.69323 -1.10871 2.00651
rclavicle -8.34896e-015 5.86415e-015
rhumerus -8.97196 33.5665 -79.2796
rradius 94.1113
rwrist 7.44059
rhand -39.9897 -49.116
rfingers 7.12502
rthumb -12.9578 -78.6936
lclavicle -8.34896e-015 5.86415e-015
lhumerus -6.62907 -39.8946 78.9514
lradius 97.5392
lwrist 17.1799
lhand -33.0774 -52.6265
lfingers 7.12502
lthumb -6.28895 -22.7398
rfemur -15.8674 -3.19881 12.2765
rtibia 30.3006
rfoot -22.7769 -6.03386
rtoes -12.8107
lfemur -24.5744 1.95264 -15.0191
ltibia 39.6864
lfoot -19.2276 2.19339
ltoes -56.4281
328
root -0.337601 18.1997 4.12233 4.7942 4.02793 0.439139
lowerback 24.5079 -1.13239 1.80891
upperback 5.19532 -0.968848 0.253301
thorax -7.91979 -0.488288 -0.464413
lowerneck -18.2484 -2.29314 -2.6688
upperneck 4.25412 -3.01526 6.048
head 4.33004 -1.14901 2.05143
rclavicle 9.64106e-015 -1.5704e-014
rhumerus -4.39939 32.4784 -77.3119
rradius 90.7302
rwrist 7.49916
rhand -39.4002 -47.8041
rfingers 7.12502
rthumb -12.3895 -77.4169
lclavicle 9.64106e-015 -1.5704e-014
lhumerus -1.20753 -38.3672 77.9383
lradius 93.4581
lwrist 16.6976
lhand -33.1537 -52.739
lfingers 7.12502
lthumb -6.36264 -22.8546
rfemur -17.0569 -3.5564 11.9645
rtibia 30.577
rfoot -22.7446 -6.3732
rtoes -12.5621
lfemur -25.876 1.56909 -15.4184
ltibia 39.6725
lfoot -18.7363 2.18012
ltoes -56.3351
329
root -0.248562 18.1965 4.06826 6.44909 6.44108 0.95058
lowerback 23.2713 -2.31965 3.29763
upperback 5.22284 -2.17845 0.189998
thorax -7.33123 -1.08605 -1.04873
lowerneck -18.3006 -2.269 -2.84239
upperneck 2.81586 -2.86833 5.97144
head 3.88533 -1.10386 2.07009
rclavicle 2.78299e-015 -3.77691e-015
rhumerus 0.721737 30.7538 -75.3246
rradius 86.7386
rwrist 9.71688
rhand -36.1913 -47.0345
rfingers 7.12502
rthumb -9.29439 -76.8096
lclavicle 2.78299e-015 -3.77691e-015
lhumerus 4.1241 -36.5021 77.2514
lradius 89.0096
lwrist 16.6923
lhand -33.318 -52.8009
lfingers 7.12502
lthumb -6.52121 -22.9213
rfemur -18.5496 -5.95305 11.3602
rtibia 30.6068
rfoot -22.5171 -6.65353
rtoes -11.9187
lfemur -28.3171 -0.791149 -16.1122
ltibia 39.5344
lfoot -17.8767 2.45231
ltoes -56.2252
330
root -0.327983 18.2465 4.07303 5.72158 4.38167 0.71591
lowerback 24.9431 -1.1636 1.61556
upperback 5.64543 -1.02396 0.508782
thorax -7.63667 -0.503784 -0.0551105
lowerneck -18.6096 -2.22829 -2.77167
upperneck 1.74909 -2.76783 5.87472
head 3.59449 -1.06817 2.03812
rclavicle 6.95746e-016 -1.27222e-014
rhumerus 5.70181 29.1461 -73.8592
rradius 82.1857
rwrist 10.7113
rhand -34.735 -46.0755
rfingers 7.12502
rthumb -7.88898 -75.9083
lclavicle 6.95746e-016 -1.27222e-014
lhumerus 9.35673 -34.8906 76.6461
lradius 84.2172
lwrist 17.2952
lhand -33.3183 -52.7602
lfingers 7.12502
lthumb -6.52148 -22.8806
rfemur -17.9506 -3.22398 11.6432
rtibia 30.2154
rfoot -22.6741 -7.17514
rtoes -10.8619
lfemur -26.8154 1.53263 -15.8224
ltibia 39.0362
lfoot -17.8547 2.03768
ltoes -56.1541
331
root -0.326347 18.2827 4.05661 6.15468 4.50354 0.819588
lowerback 25.1987 -1.15097 1.54765
upperback 5.77336 -1.00911 0.612069
thorax -7.62145 -0.493619 0.095097
lowerneck -19.1338 -2.1956 -2.69314
upperneck 0.880447 -2.68387 5.73183
head 3.39661 -1.03683 1.98839
rclavicle -8.94531e-015 6.95746e-015
rhumerus 10.7138 27.824 -72.4494
rradius 77.3457
rwrist 10.5012
rhand -34.5158 -44.4048
rfingers 7.12502
rthumb -7.67748 -74.2455
lclavicle -8.94531e-015 6.95746e-015
lhumerus 14.565 -33.108 76.2707
lradius 79.0245
lwrist 17.6218
lhand -33.26 -52.5047
lfingers 7.12502
lthumb -6.4652 -22.6233
rfemur -18.1072 -2.89744 11.5209
rtibia 29.546
rfoot -22.5723 -7.76631
rtoes -10.1166
lfemur -27.0625 1.60125 -15.9769
ltibia 38.4312
lfoot -17.333 1.96639
ltoes -56.1517
332
root -0.325633 18.3268 4.04693 6.52845 4.64452 0.891595
lowerback 25.4971 -1.16249 1.58787
upperback 5.82599 -0.998999 0.683669
thorax -7.71331 -0.488288 0.151745
lowerneck -19.7669 -2.29579 -2.98358
upperneck 0.124015 -2.7163 5.90886
head 3.265 -1.04437 2.08713
rclavicle -9.54166e-015 9.54166e-015
rhumerus 15.8251 26.8379 -70.9818
rradius 72.0975
rwrist 8.45825
rhand -36.0917 -41.3691
rfingers 7.12502
rthumb -9.19824 -71.1484
lclavicle -9.54166e-015 9.54166e-015
lhumerus 19.645 -31.2399 76.2737
lradius 73.3898
lwrist 17.4808
lhand -33.2482 -51.8177
lfingers 7.12502
lthumb -6.45385 -21.9361
rfemur -17.9501 -2.55936 11.4379
rtibia 28.4391
rfoot -22.4135 -8.47062
rtoes -9.46788
lfemur -27.082 1.58055 -16.0699
ltibia 37.5703
lfoot -16.7782 1.99419
ltoes -56.1631
